<?xml version="1.0" encoding="UTF-8"?>
<svg id="Layer_2" data-name="Layer 2" xmlns="http://www.w3.org/2000/svg" viewBox="0 0 17.65 14.32">
  <defs>
    <style>
      .cls-1 {
        fill-rule: evenodd;
      }
    </style>
  </defs>
  <g id="Guides">
    <path id="twitter" class="cls-1" d="M12,0c1.4-.02,2.15,.49,2.86,1.14,.61-.05,1.39-.39,1.86-.62,.15-.08,.3-.16,.45-.25-.26,.71-.62,1.27-1.17,1.7-.12,.09-.24,.22-.4,.28h0c.79,0,1.43-.35,2.05-.55h0c-.32,.52-.76,1.04-1.23,1.42-.19,.15-.38,.3-.57,.45,.01,.83-.01,1.63-.17,2.32-.9,4.06-3.3,6.82-7.09,8-1.36,.42-3.56,.6-5.12,.21-.77-.19-1.47-.41-2.13-.7-.36-.16-.7-.33-1.02-.53-.11-.06-.21-.13-.32-.19,.35,.01,.76,.11,1.16,.04,.36-.06,.71-.04,1.03-.11,.82-.18,1.55-.42,2.17-.78,.3-.18,.76-.39,.98-.64-.41,0-.78-.09-1.08-.19-1.17-.41-1.85-1.17-2.3-2.32,.35,.04,1.38,.13,1.62-.07-.45-.02-.88-.28-1.18-.48-.94-.59-1.71-1.58-1.71-3.1,.12,.06,.25,.12,.37,.18,.24,.1,.48,.15,.76,.21,.12,.02,.36,.09,.49,.04h-.02c-.18-.21-.48-.35-.66-.58-.6-.75-1.17-1.91-.81-3.29,.09-.35,.23-.66,.39-.94,0,0,.01,0,.02,0,.07,.15,.23,.26,.33,.38,.31,.38,.69,.73,1.08,1.03,1.32,1.03,2.51,1.67,4.42,2.14,.49,.12,1.05,.21,1.63,.21-.16-.47-.11-1.24,.02-1.7,.32-1.15,1.02-1.98,2.05-2.43,.25-.11,.52-.18,.8-.25,.15-.02,.29-.04,.44-.05Z"/>
  </g>
</svg>