<?xml version="1.0" encoding="UTF-8"?>
<svg id="Layer_2" data-name="Layer 2" xmlns="http://www.w3.org/2000/svg" viewBox="0 0 19 19">
  <defs>
    <style>
      .cls-1 {
        fill-rule: evenodd;
      }
    </style>
  </defs>
  <g id="Guides">
    <g>
      <path d="M15.42,19H3.58c-1.98,0-3.58-1.61-3.58-3.58V3.58C0,1.61,1.61,0,3.58,0H15.42c1.98,0,3.58,1.61,3.58,3.58V15.42c0,1.98-1.61,3.58-3.58,3.58ZM3.58,2c-.87,0-1.58,.71-1.58,1.58V15.42c0,.87,.71,1.58,1.58,1.58H15.42c.87,0,1.58-.71,1.58-1.58V3.58c0-.87-.71-1.58-1.58-1.58H3.58Z"/>
      <path d="M9.5,14.5c-2.76,0-5-2.24-5-5s2.24-5,5-5,5,2.24,5,5-2.24,5-5,5Zm0-8c-1.65,0-3,1.35-3,3s1.35,3,3,3,3-1.35,3-3-1.35-3-3-3Z"/>
      <path class="cls-1" d="M16.19,4.04c0,.68-.55,1.23-1.23,1.23s-1.23-.55-1.23-1.23,.55-1.23,1.23-1.23,1.23,.55,1.23,1.23Z"/>
    </g>
  </g>
</svg>